<svg width="40" height="40" viewBox="0 0 40 40" fill="none" xmlns="http://www.w3.org/2000/svg">
  <path d="M23.0863 29L19.3827 22.7514H16.6248V26.3214H13V11H20.3546C22.0532 11 23.4978 11.5829 24.6886 12.7486C25.8793 13.9143 26.4747 15.32 26.4747 16.9657C26.4747 18.08 26.1507 19.1171 25.5028 20.0771C24.8549 21.02 23.9969 21.7314 22.9287 22.2114L27 29H23.0863ZM16.6248 14.3171V19.64H20.3546C21.0375 19.64 21.6241 19.3829 22.1144 18.8686C22.6048 18.3371 22.8499 17.7029 22.8499 16.9657C22.8499 16.2286 22.6048 15.6029 22.1144 15.0886C21.6241 14.5743 21.0375 14.3171 20.3546 14.3171H16.6248Z" fill="#444444"/>
  <path fill-rule="evenodd" clip-rule="evenodd" d="M36.4865 3.51351H3.51351V36.4865H36.4865V3.51351ZM0 0V40H40V0H0Z" fill="#444444"/>
</svg>
