<?xml version="1.0" standalone="no"?>
<!DOCTYPE svg PUBLIC "-//W3C//DTD SVG 20010904//EN"
 "http://www.w3.org/TR/2001/REC-SVG-20010904/DTD/svg10.dtd">
<svg version="1.0" xmlns="http://www.w3.org/2000/svg"
 width="700.000000pt" height="700.000000pt" viewBox="0 0 700.000000 700.000000"
 preserveAspectRatio="xMidYMid meet">
<metadata>
Created by potrace 1.14, written by Peter Selinger 2001-2017
</metadata>
<g transform="translate(0.000000,700.000000) scale(0.100000,-0.100000)"
fill="#000000" stroke="none">
<path d="M0 3500 l0 -3500 3500 0 3500 0 0 3500 0 3500 -3500 0 -3500 0 0
-3500z m6385 0 l0 -2885 -2883 0 c-1920 0 -2882 3 -2883 10 -6 45 -4 5742 2
5750 5 7 976 10 2886 10 l2878 0 0 -2885z"/>
<path d="M2279 5070 c-4 -17 -3 -2663 1 -2669 3 -4 146 -7 318 -7 l312 0 0
313 0 313 242 -2 242 -3 41 -70 c100 -166 311 -522 321 -540 29 -55 279 -471
285 -475 4 -3 157 -5 341 -5 246 1 332 4 331 12 -2 10 -86 153 -154 263 -5 8
-130 217 -278 464 l-268 448 61 33 c121 64 175 104 265 194 154 156 257 360
286 565 6 45 6 213 0 266 -19 154 -94 339 -189 465 -182 241 -432 390 -721
431 -56 8 -1434 12 -1436 4z m1420 -598 c143 -56 252 -181 287 -328 18 -78 10
-208 -16 -279 -38 -101 -106 -187 -189 -239 -89 -56 -105 -58 -503 -60 l-368
-2 0 466 0 465 368 -1 c348 -1 370 -2 421 -22z"/>
</g>
</svg>
